[Module]
VortexTrackerII=1
Version=3.6
Title=Sokoban Test
Author=falvarez
NoteTable=2
Speed=6
PlayOrder=L1,2,3,4,5,8,6,7,5,8,6,7,1,10

[Ornament1]
L0,4,7,0,4,7

[Ornament2]
L0,3,8

[Ornament3]
L0,5,9

[Ornament4]
L0,3,7

[Ornament5]
L0,4,9

[Ornament6]
L0,5,8

[Ornament7]
L0

[Ornament8]
L0

[Ornament9]
L0

[Ornament10]
L0

[Ornament11]
L0

[Ornament12]
L0

[Ornament13]
L0

[Ornament14]
L0

[Ornament15]
L0

[Sample1]
TNe -400^ +00_ F_
Tne +0C0^ +00_ E_
Tne +0C0_ +00_ C_
tne +000_ +00_ 0_ L

[Sample2]
tNe +000_ +00_ C_
tNe +000_ +00_ C_
tNe +000_ +00_ C- L
tNe +000_ +00_ C_

[Sample3]
tne +000_ +00_ 0_ L

[Sample4]
Tne +000_ +00_ F_ L
Tne +001_ +00_ F_
Tne +000_ +00_ F_
Tne +001_ +00_ F_
Tne +000_ +00_ F_
Tne -001_ +00_ F_
Tne +000_ +00_ F_
Tne -001_ +00_ F_

[Sample5]
tne +000_ +00_ F_
Tne +001_ +00_ F_ L
Tne +000_ +00_ F_
Tne +001_ +00_ F_
Tne +000_ +00_ F_
Tne -001_ +00_ F_
Tne +000_ +00_ F_
Tne -001_ +00_ F_

[Sample6]
tne +000_ +00_ 0_ L

[Sample7]
tne +000_ +00_ 0_ L

[Sample8]
tne +000_ +00_ 0_ L

[Sample9]
tne +000_ +00_ 0_ L

[Sample10]
tne +000_ +00_ 0_ L

[Sample11]
tne +000_ +00_ 0_ L

[Sample12]
tne +000_ +00_ 0_ L

[Sample13]
tne +000_ +00_ 0_ L

[Sample14]
tne +000_ +00_ 0_ L

[Sample15]
tne +000_ +00_ 0_ L

[Sample16]
tne +000_ +00_ 0_ L

[Sample17]
tne +000_ +00_ 0_ L

[Sample18]
tne +000_ +00_ 0_ L

[Sample19]
tne +000_ +00_ 0_ L

[Sample20]
tne +000_ +00_ 0_ L

[Sample21]
tne +000_ +00_ 0_ L

[Sample22]
tne +000_ +00_ 0_ L

[Sample23]
tne +000_ +00_ 0_ L

[Sample24]
tne +000_ +00_ 0_ L

[Sample25]
tne +000_ +00_ 0_ L

[Sample26]
tne +000_ +00_ 0_ L

[Sample27]
tne +000_ +00_ 0_ L

[Sample28]
tne +000_ +00_ 0_ L

[Sample29]
tne +000_ +00_ 0_ L

[Sample30]
tne +000_ +00_ 0_ L

[Sample31]
tne +000_ +00_ 0_ L

[Pattern0]
....|..|C-4 1... ....|--- .... ....|--- .... ....
....|..|--- .... ....|--- .... ....|--- .... ....
....|..|--- .... ....|--- .... ....|--- .... ....
....|..|--- .... ....|--- .... ....|--- .... ....
....|..|--- .... ....|--- .... ....|--- .... ....
....|..|--- .... ....|--- .... ....|--- .... ....
....|..|--- .... ....|--- .... ....|--- .... ....
....|..|--- .... ....|--- .... ....|--- .... ....
....|..|C-1 2... ....|--- .... ....|--- .... ....
....|..|--- .... ....|--- .... ....|--- .... ....
....|..|--- .... ....|--- .... ....|--- .... ....
....|..|--- .... ....|--- .... ....|--- .... ....
....|..|--- .... ....|--- .... ....|--- .... ....
....|..|--- .... ....|--- .... ....|--- .... ....
....|..|C-1 2... ....|--- .... ....|--- .... ....
....|..|--- .... ....|--- .... ....|--- .... ....
....|..|--- .... ....|--- .... ....|--- .... ....
....|..|--- .... ....|--- .... ....|--- .... ....
....|..|C-1 2... ....|--- .... ....|--- .... ....
....|..|--- .... ....|--- .... ....|--- .... ....
....|..|C-4 1... ....|--- .... ....|--- .... ....
....|..|--- .... ....|--- .... ....|--- .... ....
....|..|C-4 1... ....|--- .... ....|--- .... ....
....|..|--- .... ....|--- .... ....|--- .... ....
....|..|C-1 2... ....|--- .... ....|--- .... ....
....|..|--- .... ....|--- .... ....|--- .... ....
....|..|--- .... ....|--- .... ....|--- .... ....
....|..|--- .... ....|--- .... ....|--- .... ....
....|..|--- .... ....|--- .... ....|--- .... ....
....|..|--- .... ....|--- .... ....|--- .... ....
....|..|--- .... ....|--- .... ....|--- .... ....
....|..|--- .... ....|--- .... ....|--- .... ....
....|..|C-4 1... ....|--- .... ....|--- .... ....
....|..|--- .... ....|--- .... ....|--- .... ....
....|..|--- .... ....|--- .... ....|--- .... ....
....|..|--- .... ....|--- .... ....|--- .... ....
....|..|--- .... ....|--- .... ....|--- .... ....
....|..|--- .... ....|--- .... ....|--- .... ....
....|..|--- .... ....|--- .... ....|--- .... ....
....|..|--- .... ....|--- .... ....|--- .... ....
....|..|C-4 2... ....|--- .... ....|--- .... ....
....|..|--- .... ....|--- .... ....|--- .... ....
....|..|--- .... ....|--- .... ....|--- .... ....
....|..|--- .... ....|--- .... ....|--- .... ....
....|..|--- .... ....|--- .... ....|--- .... ....
....|..|--- .... ....|--- .... ....|--- .... ....
....|..|C-1 2... ....|--- .... ....|--- .... ....
....|..|--- .... ....|--- .... ....|--- .... ....
....|..|--- .... ....|--- .... ....|--- .... ....
....|..|--- .... ....|--- .... ....|--- .... ....
....|..|C-1 2... ....|--- .... ....|--- .... ....
....|..|--- .... ....|--- .... ....|--- .... ....
....|..|C-4 1... ....|--- .... ....|--- .... ....
....|..|--- .... ....|--- .... ....|--- .... ....
....|..|C-4 1... ....|--- .... ....|--- .... ....
....|..|--- .... ....|--- .... ....|--- .... ....
....|..|C-1 2... ....|--- .... ....|--- .... ....
....|..|--- .... ....|--- .... ....|--- .... ....
....|..|--- .... ....|--- .... ....|--- .... ....
....|..|--- .... ....|--- .... ....|--- .... ....
....|..|--- .... ....|--- .... ....|--- .... ....
....|..|--- .... ....|--- .... ....|--- .... ....
....|..|--- .... ....|--- .... ....|--- .... ....
....|..|--- .... ....|--- .... ....|--- .... ....

[Pattern1]
....|..|--- .... B..6|D-2 4F.F ....|--- .... ....
....|..|--- .... ....|--- .... ....|--- .... ....
....|..|A-3 51.C ....|--- .... ....|--- .... ....
....|..|--- .... ....|--- .... ....|--- .... ....
....|..|D-4 .... ....|--- .... ....|--- .... ....
....|..|--- .... ....|--- .... ....|--- .... ....
....|..|E-4 .... ....|--- .... ....|--- .... ....
....|..|--- .... ....|--- .... ....|--- .... ....
....|..|F-4 .... ....|--- .... ....|--- .... ....
....|..|--- .... ....|--- .... ....|--- .... ....
....|..|E-4 .... ....|--- .... ....|--- .... ....
....|..|--- .... ....|--- .... ....|--- .... ....
....|..|D-4 .... ....|--- .... ....|--- .... ....
....|..|--- .... ....|--- .... ....|--- .... ....
....|..|R-- .... ....|--- .... ....|--- .... ....
....|..|--- .... ....|--- .... ....|--- .... ....
....|..|C-4 .... ....|C-2 .... ....|--- .... ....
....|..|--- .... ....|--- .... ....|--- .... ....
....|..|D-4 .... ....|--- .... ....|--- .... ....
....|..|--- .... ....|--- .... ....|--- .... ....
....|..|C-4 .... ....|--- .... ....|--- .... ....
....|..|--- .... ....|--- .... ....|--- .... ....
....|..|A-3 .... ....|--- .... ....|--- .... ....
....|..|--- .... ....|--- .... ....|--- .... ....
....|..|--- .... ....|A-1 .... ....|A-3 554C ....
....|..|--- .... ....|--- .... ....|R-- .... ....
....|..|--- .... ....|--- .... ....|C-4 ..5. ....
....|..|--- .... ....|--- .... ....|R-- .... ....
....|..|--- .... ....|--- .... ....|E-4 ..6. ....
....|..|--- .... ....|--- .... ....|R-- .... ....
....|..|--- .... ....|--- .... ....|A-4 ..4. ....
....|..|--- .... ....|--- .... ....|R-- .... ....
....|..|R-- .... ....|D-2 .... ....|--- .... ....
....|..|--- .... ....|--- .... ....|--- .... ....
....|..|A-3 .... ....|--- .... ....|--- .... ....
....|..|--- .... ....|--- .... ....|--- .... ....
....|..|D-4 .... ....|--- .... ....|--- .... ....
....|..|--- .... ....|--- .... ....|--- .... ....
....|..|E-4 .... ....|--- .... ....|--- .... ....
....|..|--- .... ....|--- .... ....|--- .... ....
....|..|F-4 .... ....|--- .... ....|--- .... ....
....|..|--- .... ....|--- .... ....|--- .... ....
....|..|E-4 .... ....|--- .... ....|--- .... ....
....|..|--- .... ....|--- .... ....|--- .... ....
....|..|D-4 .... ....|--- .... ....|--- .... ....
....|..|--- .... ....|--- .... ....|--- .... ....
....|..|R-- .... ....|--- .... ....|--- .... ....
....|..|--- .... ....|--- .... ....|--- .... ....
....|..|G-4 .... ....|C-2 .... ....|--- .... ....
....|..|--- .... ....|--- .... ....|--- .... ....
....|..|A-4 .... ....|--- .... ....|--- .... ....
....|..|--- .... ....|--- .... ....|--- .... ....
....|..|G-4 .... ....|--- .... ....|--- .... ....
....|..|--- .... ....|--- .... ....|--- .... ....
....|..|--- .... ....|--- .... ....|--- .... ....
....|..|--- .... ....|--- .... ....|--- .... ....
....|..|--- .... ....|--- .... ....|--- .... ....
....|..|--- .... ....|--- .... ....|--- .... ....
....|..|--- .... ....|--- .... ....|--- .... ....
....|..|--- .... ....|--- .... ....|--- .... ....
....|..|R-- .... ....|--- .... ....|--- .... ....
....|..|--- .... ....|--- .... ....|--- .... ....
....|..|--- .... ....|--- .... ....|--- .... ....
....|..|--- .... ....|--- .... ....|--- .... ....

[Pattern2]
....|..|--- .... ....|D-2 4F.F ....|--- .... ....
....|..|--- .... ....|--- .... ....|--- .... ....
....|..|A-3 51.C ....|--- .... ....|--- .... ....
....|..|--- .... ....|--- .... ....|--- .... ....
....|..|D-4 .... ....|--- .... ....|--- .... ....
....|..|--- .... ....|--- .... ....|--- .... ....
....|..|E-4 .... ....|--- .... ....|--- .... ....
....|..|--- .... ....|--- .... ....|--- .... ....
....|..|F-4 .... ....|--- .... ....|--- .... ....
....|..|--- .... ....|--- .... ....|--- .... ....
..1F|..|R-- .... ....|--- .... ....|A-3 5C.A ....
....|..|--- .... ....|--- .... ....|--- .... ....
....|..|G-4 .... ....|E-2 .... ....|E-4 .... ....
....|..|--- .... ....|--- .... ....|--- .... ....
....|..|A-4 .... ....|F-2 .... ....|F-4 .... ....
....|..|--- .... ....|--- .... ....|--- .... ....
....|..|A#4 .... ....|G-2 .... ....|G-4 .... ....
....|..|--- .... ....|--- .... ....|--- .... ....
....|..|A-4 .... ....|F-2 .... ....|F-4 .... ....
....|..|--- .... ....|--- .... ....|--- .... ....
....|..|G-4 .... ....|E-2 .... ....|E-4 .... ....
....|..|--- .... ....|--- .... ....|--- .... ....
....|..|E-4 .... ....|C-2 .... ....|C-4 .... ....
....|..|--- .... ....|--- .... ....|--- .... ....
....|..|--- .... ....|--- .... ....|--- .... ....
....|..|--- .... ....|--- .... ....|--- .... ....
....|..|--- .... ....|--- .... ....|--- .... ....
....|..|--- .... ....|--- .... ....|--- .... ....
....|..|F-4 .... ....|--- .... ....|D-4 .... ....
....|..|--- .... ....|--- .... ....|--- .... ....
....|..|G-4 .... ....|--- .... ....|E-4 .... ....
....|..|--- .... ....|--- .... ....|--- .... ....
....|..|F-4 .... ....|D-2 .... ....|D-4 .... ....
....|..|--- .... ....|--- .... ....|--- .... ....
....|..|R-- .... ....|--- .... ....|R-- .... ....
....|..|--- .... ....|--- .... ....|--- .... ....
....|..|G-4 .... ....|--- .... ....|E-4 .... ....
....|..|--- .... ....|--- .... ....|--- .... ....
....|..|F-4 .... ....|--- .... ....|D-4 .... ....
....|..|--- .... ....|--- .... ....|--- .... ....
....|..|E-4 .... ....|A-1 .... ....|C-4 .... ....
....|..|--- .... ....|--- .... ....|--- .... ....
....|..|D-4 .... ....|--- .... ....|A-3 .... ....
....|..|--- .... ....|--- .... ....|--- .... ....
....|..|C-4 .... ....|--- .... ....|F-3 .... ....
....|..|--- .... ....|--- .... ....|--- .... ....
....|..|--- .... ....|--- .... ....|--- .... ....
....|..|--- .... ....|--- .... ....|--- .... ....
....|..|D-4 .... ....|D-2 .... ....|A-3 .... ....
....|..|--- .... ....|--- .... ....|--- .... ....
....|..|--- .... ....|--- .... ....|--- .... ....
....|..|--- .... ....|--- .... ....|--- .... ....
....|..|--- .... ....|--- .... ....|--- .... ....
....|..|--- .... ....|--- .... ....|--- .... ....
....|..|--- .... ....|--- .... ....|--- .... ....
....|..|--- .... ....|--- .... ....|--- .... ....
....|..|--- .... ....|--- .... ....|C-1 21.6 ....
....|..|--- .... ....|--- .... ....|--- .... ....
....|..|--- .... ....|--- .... ....|C-1 21.9 ....
....|..|--- .... ....|--- .... ....|--- .... ....
....|..|--- .... ....|--- .... ....|C-1 21.D ....
....|..|--- .... ....|--- .... ....|C-1 21.E ....
....|..|--- .... ....|--- .... ....|C-1 21.F ....
....|..|--- .... ....|--- .... ....|--- .... ....

[Pattern3]
....|..|--- .... ....|D-2 4F.F ....|--- .... ....
....|..|--- .... ....|--- .... ....|--- .... ....
....|..|A-3 51.C ....|--- .... ....|--- .... ....
....|..|--- .... ....|--- .... ....|--- .... ....
....|..|D-4 .... ....|--- .... ....|C-1 21.F ....
....|..|--- .... ....|--- .... ....|--- .... ....
....|..|E-4 .... ....|--- .... ....|--- .... ....
....|..|--- .... ....|--- .... ....|--- .... ....
....|..|F-4 .... ....|--- .... ....|--- .... ....
....|..|--- .... ....|--- .... ....|--- .... ....
....|..|E-4 .... ....|--- .... ....|--- .... ....
....|..|--- .... ....|--- .... ....|--- .... ....
....|..|D-4 .... ....|--- .... ....|C-1 21.F ....
....|..|--- .... ....|--- .... ....|--- .... ....
....|..|R-- .... ....|--- .... ....|--- .... ....
....|..|--- .... ....|--- .... ....|--- .... ....
....|..|C-4 .... ....|C-2 .... ....|--- .... ....
....|..|--- .... ....|--- .... ....|--- .... ....
....|..|D-4 .... ....|--- .... ....|--- .... ....
....|..|--- .... ....|--- .... ....|--- .... ....
....|..|C-4 .... ....|--- .... ....|C-1 21.F ....
....|..|--- .... ....|--- .... ....|--- .... ....
....|..|A-3 .... ....|--- .... ....|C-1 21.F ....
....|..|--- .... ....|--- .... ....|--- .... ....
....|..|--- .... ....|A-1 .... ....|A-3 554C ....
....|..|--- .... ....|--- .... ....|R-- .... ....
....|..|--- .... ....|--- .... ....|C-4 ..5. ....
....|..|--- .... ....|--- .... ....|R-- .... ....
....|..|C-1 21.F ....|--- .... ....|E-4 ..6. ....
....|..|--- .... ....|--- .... ....|R-- .... ....
....|..|C-1 21.F ....|--- .... ....|A-4 ..4. ....
....|..|--- .... ....|--- .... ....|R-- .... ....
....|..|R-- .... ....|D-2 .... ....|--- .... ....
....|..|--- .... ....|--- .... ....|--- .... ....
....|..|A-3 51.C ....|--- .... ....|--- .... ....
....|..|--- .... ....|--- .... ....|--- .... ....
....|..|D-4 .... ....|--- .... ....|C-1 21.F ....
....|..|--- .... ....|--- .... ....|--- .... ....
....|..|E-4 .... ....|--- .... ....|--- .... ....
....|..|--- .... ....|--- .... ....|--- .... ....
....|..|F-4 .... ....|--- .... ....|--- .... ....
....|..|--- .... ....|--- .... ....|--- .... ....
....|..|E-4 .... ....|--- .... ....|--- .... ....
....|..|--- .... ....|--- .... ....|--- .... ....
....|..|D-4 .... ....|--- .... ....|C-1 21.F ....
....|..|--- .... ....|--- .... ....|--- .... ....
....|..|R-- .... ....|--- .... ....|--- .... ....
....|..|--- .... ....|--- .... ....|--- .... ....
....|..|G-4 .... ....|C-2 .... ....|--- .... ....
....|..|--- .... ....|--- .... ....|--- .... ....
....|..|A-4 .... ....|--- .... ....|--- .... ....
....|..|--- .... ....|--- .... ....|--- .... ....
....|..|G-4 .... ....|--- .... ....|C-1 21.F ....
....|..|--- .... ....|--- .... ....|--- .... ....
....|..|--- .... ....|--- .... ....|--- .... ....
....|..|--- .... ....|--- .... ....|--- .... ....
....|..|--- .... ....|--- .... ....|--- .... ....
....|..|--- .... ....|--- .... ....|--- .... ....
....|..|--- .... ....|--- .... ....|--- .... ....
....|..|--- .... ....|--- .... ....|--- .... ....
....|..|C-1 21.F ....|--- .... ....|--- .... ....
....|..|--- .... ....|--- .... ....|--- .... ....
....|..|C-1 21.F ....|--- .... ....|--- .... ....
....|..|--- .... ....|--- .... ....|--- .... ....

[Pattern4]
....|..|--- .... ....|D-2 4F.F ....|--- .... ....
....|..|--- .... ....|--- .... ....|--- .... ....
....|..|A-3 51.C ....|--- .... ....|--- .... ....
....|..|--- .... ....|--- .... ....|--- .... ....
....|..|D-4 .... ....|--- .... ....|C-1 21.F ....
....|..|--- .... ....|--- .... ....|--- .... ....
....|..|E-4 .... ....|--- .... ....|--- .... ....
....|..|--- .... ....|--- .... ....|--- .... ....
....|..|F-4 .... ....|--- .... ....|--- .... ....
....|..|--- .... ....|--- .... ....|--- .... ....
..1F|..|R-- .... ....|--- .... ....|A-3 5C.A ....
....|..|--- .... ....|--- .... ....|--- .... ....
....|..|G-4 .... ....|E-2 .... ....|C-1 21.F ....
....|..|--- .... ....|--- .... ....|--- .... ....
....|..|A-4 .... ....|F-2 .... ....|F-4 5C.A ....
....|..|--- .... ....|--- .... ....|--- .... ....
....|..|A#4 .... ....|G-2 .... ....|G-4 .... ....
....|..|--- .... ....|--- .... ....|--- .... ....
....|..|A-4 .... ....|F-2 .... ....|F-4 .... ....
....|..|--- .... ....|--- .... ....|--- .... ....
....|..|G-4 .... ....|E-2 .... ....|C-1 21.F ....
....|..|--- .... ....|--- .... ....|--- .... ....
....|..|E-4 .... ....|C-2 .... ....|C-4 5C.A ....
....|..|--- .... ....|--- .... ....|--- .... ....
....|..|--- .... ....|--- .... ....|--- .... ....
....|..|--- .... ....|--- .... ....|--- .... ....
....|..|--- .... ....|--- .... ....|--- .... ....
....|..|--- .... ....|--- .... ....|--- .... ....
....|..|F-4 .... ....|--- .... ....|C-1 21.F ....
....|..|--- .... ....|--- .... ....|--- .... ....
....|..|G-4 .... ....|--- .... ....|E-4 5C.A ....
....|..|--- .... ....|--- .... ....|--- .... ....
....|..|F-4 .... ....|D-2 .... ....|D-4 .... ....
....|..|--- .... ....|--- .... ....|--- .... ....
....|..|R-- .... ....|--- .... ....|--- .... ....
....|..|--- .... ....|--- .... ....|--- .... ....
....|..|G-4 .... ....|--- .... ....|C-1 21.F ....
....|..|--- .... ....|--- .... ....|--- .... ....
....|..|F-4 .... ....|--- .... ....|D-4 5C.A ....
....|..|--- .... ....|--- .... ....|--- .... ....
....|..|E-4 .... ....|A-1 .... ....|C-4 .... ....
....|..|--- .... ....|--- .... ....|--- .... ....
....|..|D-4 .... ....|--- .... ....|A-3 .... ....
....|..|--- .... ....|--- .... ....|--- .... ....
....|..|C-4 .... ....|--- .... ....|C-1 21.F ....
....|..|--- .... ....|--- .... ....|--- .... ....
....|..|--- .... ....|--- .... ....|--- .... ....
....|..|--- .... ....|--- .... ....|--- .... ....
....|..|D-4 .... ....|D-2 .... ....|A-3 5C.A ....
....|..|--- .... ....|--- .... ....|--- .... ....
....|..|--- .... ....|--- .... ....|--- .... ....
....|..|--- .... ....|--- .... ....|--- .... ....
....|..|--- .... ....|--- .... ....|C-1 21.F ....
....|..|--- .... ....|--- .... ....|--- .... ....
....|..|--- .... ....|--- .... ....|--- .... ....
....|..|--- .... ....|--- .... ....|--- .... ....
....|..|--- .... ....|--- .... ....|C-1 21.6 ....
....|..|--- .... ....|--- .... ....|--- .... ....
....|..|--- .... ....|--- .... ....|C-1 21.9 ....
....|..|--- .... ....|--- .... ....|--- .... ....
....|..|--- .... ....|--- .... ....|C-1 21.D ....
....|..|--- .... ....|--- .... ....|C-1 21.E ....
....|..|--- .... ....|--- .... ....|C-1 21.F ....
....|..|--- .... ....|--- .... ....|C-1 21.F ....

[Pattern5]
....|..|F-2 .... ....|F-4 51.F ....|F-4 441D ....
....|..|--- .... ....|--- .... ....|R-- .... ....
....|..|G-2 .... ....|C-4 .... ....|F-4 .... ....
....|..|--- .... ....|--- .... ....|R-- .... ....
....|..|A-2 .... ....|F-4 .... ....|C-1 2..F ....
....|..|--- .... ....|--- .... ....|--- .... ....
....|..|F-2 .... ....|G-4 .... ....|--- .... ....
....|..|--- .... ....|--- .... ....|--- .... ....
....|..|--- .... ....|A-4 .... ....|F-4 441D ....
....|..|--- .... ....|--- .... ....|R-- .... ....
....|..|--- .... ....|--- .... ....|F-4 .... ....
....|..|--- .... ....|--- .... ....|R-- .... ....
....|..|R-- .... ....|A#4 .... ....|C-1 2..F ....
....|..|--- .... ....|--- .... ....|--- .... ....
....|..|--- .... ....|A-4 .... ....|--- .... ....
....|..|--- .... ....|--- .... ....|--- .... ....
....|..|E-2 .... ....|G-4 .... ....|C-4 441D ....
....|..|--- .... ....|--- .... ....|R-- .... ....
....|..|D-2 .... ....|F-4 .... ....|C-4 .... ....
....|..|--- .... ....|--- .... ....|R-- .... ....
....|..|E-2 .... ....|E-4 .... ....|C-1 2..F ....
....|..|--- .... ....|--- .... ....|--- .... ....
....|..|C-2 .... ....|C-4 .... ....|--- .... ....
....|..|--- .... ....|--- .... ....|--- .... ....
....|..|--- .... ....|--- .... ....|C-4 441D ....
....|..|--- .... ....|--- .... ....|R-- .... ....
....|..|--- .... ....|R-- .... ....|C-4 .... ....
....|..|--- .... ....|--- .... ....|R-- .... ....
....|..|R-- .... ....|D-4 .... ....|C-1 2..F ....
....|..|--- .... ....|--- .... ....|--- .... ....
....|..|--- .... ....|E-4 .... ....|--- .... ....
....|..|--- .... ....|--- .... ....|--- .... ....
....|..|D-2 .... ....|D-4 .... ....|D-4 444D ....
....|..|--- .... ....|--- .... ....|R-- .... ....
....|..|F-2 .... ....|A-3 .... ....|D-4 .... ....
....|..|--- .... ....|--- .... ....|R-- .... ....
....|..|G-2 .... ....|D-4 .... ....|C-1 2..F ....
....|..|--- .... ....|--- .... ....|--- .... ....
....|..|A-2 .... ....|E-4 .... ....|--- .... ....
....|..|--- .... ....|--- .... ....|--- .... ....
....|..|D-2 .... ....|F-4 .... ....|D-4 444D ....
....|..|--- .... ....|--- .... ....|R-- .... ....
....|..|--- .... ....|--- .... ....|D-4 .... ....
....|..|--- .... ....|--- .... ....|R-- .... ....
....|..|R-- .... ....|G-4 .... ....|C-1 2..F ....
....|..|--- .... ....|--- .... ....|--- .... ....
....|..|--- .... ....|F-4 .... ....|--- .... ....
....|..|--- .... ....|--- .... ....|--- .... ....
....|..|A-1 .... ....|E-4 .... ....|A-3 444D ....
....|..|--- .... ....|--- .... ....|R-- .... ....
....|..|A-2 .... ....|--- .... ....|A-3 .... ....
....|..|--- .... ....|--- .... ....|R-- .... ....
....|..|A-2 .... ....|--- .... ....|C-1 2..F ....
....|..|--- .... ....|--- .... ....|--- .... ....
....|..|G-2 .... ....|--- .... ....|--- .... ....
....|..|--- .... ....|--- .... ....|--- .... ....
....|..|A-2 .... ....|R-- .... ....|A-3 444D ....
....|..|--- .... ....|--- .... ....|R-- .... ....
....|..|--- .... ....|--- .... ....|A-3 .... ....
....|..|--- .... ....|--- .... ....|R-- .... ....
....|..|R-- .... ....|F-4 .... ....|C-1 2..F ....
....|..|--- .... ....|--- .... ....|--- .... ....
....|..|--- .... ....|E-4 .... ....|--- .... ....
....|..|--- .... ....|--- .... ....|--- .... ....

[Pattern6]
....|..|F-2 .... ....|F-4 51.F ....|F-4 441D ....
....|..|--- .... ....|--- .... ....|R-- .... ....
....|..|G-2 .... ....|G-4 .... ....|F-4 .... ....
....|..|--- .... ....|--- .... ....|R-- .... ....
....|..|A-2 .... ....|A-4 .... ....|C-1 2..F ....
....|..|--- .... ....|--- .... ....|--- .... ....
....|..|F-2 .... ....|A#4 .... ....|--- .... ....
....|..|--- .... ....|--- .... ....|--- .... ....
....|..|--- .... ....|C-5 .... ....|F-4 441D ....
....|..|--- .... ....|--- .... ....|R-- .... ....
....|..|--- .... ....|--- .... ....|F-4 .... ....
....|..|--- .... ....|--- .... ....|R-- .... ....
....|..|R-- .... ....|--- .... ....|C-1 2..F ....
....|..|--- .... ....|--- .... ....|--- .... ....
....|..|--- .... ....|C-5 .... ....|--- .... ....
....|..|--- .... ....|--- .... ....|--- .... ....
....|..|E-2 .... ....|D-5 .... ....|C-4 441D ....
....|..|--- .... ....|--- .... ....|R-- .... ....
....|..|D-2 .... ....|C-5 .... ....|C-4 .... ....
....|..|--- .... ....|--- .... ....|R-- .... ....
....|..|E-2 .... ....|E-5 .... ....|C-1 2..F ....
....|..|--- .... ....|--- .... ....|--- .... ....
....|..|C-2 .... ....|F-5 .... ....|--- .... ....
....|..|--- .... ....|--- .... ....|--- .... ....
....|..|--- .... ....|G-4 ...C ....|C-4 441D ....
....|..|--- .... ....|--- .... ....|R-- .... ....
....|..|--- .... ....|F-4 .... ....|C-4 .... ....
....|..|--- .... ....|--- .... ....|R-- .... ....
....|..|R-- .... ....|E-4 .... ....|C-1 2..F ....
....|..|--- .... ....|--- .... ....|--- .... ....
....|..|--- .... ....|F-4 .... ....|--- .... ....
....|..|--- .... ....|--- .... ....|--- .... ....
....|..|D-2 .... ....|D-4 ...F ....|D-4 444D ....
....|..|--- .... ....|--- .... ....|R-- .... ....
....|..|F-2 .... ....|F-4 .... ....|D-4 .... ....
....|..|--- .... ....|--- .... ....|R-- .... ....
....|..|G-2 .... ....|A-4 .... ....|C-1 2..F ....
....|..|--- .... ....|--- .... ....|--- .... ....
....|..|A-2 .... ....|D-5 .... ....|--- .... ....
....|..|--- .... ....|--- .... ....|--- .... ....
....|..|D-2 .... ....|A-3 ...C ....|D-4 444D ....
....|..|--- .... ....|--- .... ....|R-- .... ....
....|..|--- .... ....|G-3 .... ....|D-4 .... ....
....|..|--- .... ....|--- .... ....|R-- .... ....
....|..|R-- .... ....|F-3 .... ....|C-1 2..F ....
....|..|--- .... ....|--- .... ....|--- .... ....
....|..|--- .... ....|A-3 .... ....|--- .... ....
....|..|--- .... ....|--- .... ....|--- .... ....
....|..|A#1 .... ....|A#3 ...F ....|A#3 441D ....
....|..|--- .... ....|--- .... ....|R-- .... ....
....|..|A#2 .... ....|A-3 .... ....|A#3 .... ....
....|..|--- .... ....|--- .... ....|R-- .... ....
....|..|A#1 .... ....|A#3 .... ....|C-1 2..F ....
....|..|--- .... ....|--- .... ....|--- .... ....
....|..|A-1 .... ....|C-4 .... ....|--- .... ....
....|..|--- .... ....|--- .... ....|--- .... ....
....|..|A#1 .... ....|D-4 .... ....|A#3 441D ....
....|..|--- .... ....|--- .... ....|R-- .... ....
....|..|--- .... ....|E-4 .... ....|A#3 .... ....
....|..|--- .... ....|--- .... ....|R-- .... ....
....|..|R-- .... ....|F-4 .... ....|C-1 2..F ....
....|..|--- .... ....|--- .... ....|--- .... ....
....|..|--- .... ....|G-4 .... ....|--- .... ....
....|..|--- .... ....|--- .... ....|--- .... ....

[Pattern7]
....|..|C-5 5... ....|C-2 .... ....|C-4 4..A ....
....|..|--- .... ....|R-- .... ....|--- .... ....
....|..|--- .... ....|C-2 .... ....|R-- .... ....
....|..|--- .... ....|--- .... ....|--- .... ....
....|..|--- .... ....|--- .... ....|C-4 .... ....
....|..|--- .... ....|R-- .... ....|--- .... ....
....|..|--- .... ....|C-2 .... ....|R-- .... ....
....|..|--- .... ....|R-- .... ....|--- .... ....
....|..|C-6 .... ....|C-2 .... ....|C-4 .... ....
....|..|--- .... ....|R-- .... ....|--- .... ....
....|..|--- .... ....|C-2 .... ....|R-- .... ....
....|..|--- .... ....|--- .... ....|--- .... ....
....|..|--- .... ....|--- .... ....|C-4 .... ....
....|..|--- .... ....|R-- .... ....|--- .... ....
....|..|--- .... ....|C-2 .... ....|R-- .... ....
....|..|--- .... ....|R-- .... ....|--- .... ....
....|..|A-5 .... ....|C#2 .... ....|C#4 ..2B ....
....|..|--- .... ....|R-- .... ....|--- .... ....
....|..|--- .... ....|C#2 .... ....|R-- .... ....
....|..|--- .... ....|--- .... ....|--- .... ....
....|..|R-- .... ....|--- .... ....|C#4 .... ....
....|..|--- .... ....|R-- .... ....|--- .... ....
....|..|--- .... ....|C#2 .... ....|R-- .... ....
....|..|--- .... ....|R-- .... ....|--- .... ....
....|..|A-4 .... ....|C#2 .... ....|C#4 .... ....
....|..|--- .... ....|R-- .... ....|--- .... ....
....|..|G-4 .... ....|C#2 .... ....|R-- .... ....
....|..|--- .... ....|--- .... ....|--- .... ....
....|..|F-4 .... ....|--- .... ....|C#4 .... ....
....|..|--- .... ....|R-- .... ....|--- .... ....
....|..|G-4 .... ....|C#2 .... ....|R-- .... ....
....|..|--- .... ....|R-- .... ....|--- .... ....
....|..|A-4 .... ....|D-2 .... ....|D-4 ..4C ....
....|..|--- .... ....|R-- .... ....|--- .... ....
....|..|--- .... ....|D-2 .... ....|R-- .... ....
....|..|--- .... ....|--- .... ....|--- .... ....
....|..|--- .... ....|--- .... ....|D-4 .... ....
....|..|--- .... ....|R-- .... ....|--- .... ....
....|..|--- .... ....|D-2 .... ....|R-- .... ....
....|..|--- .... ....|R-- .... ....|--- .... ....
....|..|--- .... ....|D-2 .... ....|D-4 .... ....
....|..|--- .... ....|R-- .... ....|--- .... ....
....|..|--- .... ....|D-2 .... ....|R-- .... ....
....|..|--- .... ....|--- .... ....|--- .... ....
....|..|R-- .... ....|--- .... ....|D-4 .... ....
....|..|--- .... ....|R-- .... ....|--- .... ....
....|..|--- .... ....|D-2 .... ....|R-- .... ....
....|..|--- .... ....|R-- .... ....|--- .... ....
....|..|C-6 .... ....|E-2 .... ....|E-4 ..2D ....
....|..|--- .... ....|R-- .... ....|--- .... ....
....|..|--- .... ....|E-2 .... ....|R-- .... ....
....|..|--- .... ....|--- .... ....|--- .... ....
....|..|--- .... ....|--- .... ....|E-4 .... ....
....|..|--- .... ....|R-- .... ....|--- .... ....
....|..|R-- .... ....|E-2 .... ....|R-- .... ....
....|..|--- .... ....|R-- .... ....|--- .... ....
....|..|C-6 .... ....|E-2 .... ....|E-4 ...E ....
....|..|--- .... ....|R-- .... ....|--- .... ....
....|..|A#5 .... ....|E-2 .... ....|R-- .... ....
....|..|--- .... ....|R-- .... ....|--- .... ....
....|..|A-5 .... ....|F-2 .... ....|E-4 .... ....
....|..|--- .... ....|R-- .... ....|--- .... ....
....|..|G-5 .... ....|G-2 .... ....|R-- .... ....
....|..|--- .... ....|R-- .... ....|--- .... ....

[Pattern8]
....|..|A#1 .... ....|D-4 .... ....|A#3 411D ....
....|..|--- .... ....|--- .... ....|R-- .... ....
....|..|A#1 .... ....|--- .... ....|A#3 .... ....
....|..|--- .... ....|--- .... ....|R-- .... ....
....|..|--- .... ....|R-- .... ....|C-1 2..F ....
....|..|--- .... ....|--- .... ....|--- .... ....
....|..|--- .... ....|D-4 .... ....|--- .... ....
....|..|--- .... ....|--- .... ....|--- .... ....
....|..|A#1 .... ....|F-4 .... ....|A#3 411D ....
....|..|--- .... ....|--- .... ....|R-- .... ....
....|..|C-2 .... ....|E-4 .... ....|A#3 411D ....
....|..|--- .... ....|--- .... ....|R-- .... ....
....|..|D-2 .... ....|F-4 .... ....|C-1 2..F ....
....|..|--- .... ....|--- .... ....|--- .... ....
....|..|E-2 .... ....|G-4 .... ....|--- .... ....
....|..|--- .... ....|--- .... ....|--- .... ....
....|..|D-2 .... ....|A-4 .... ....|A-3 416D ....
....|..|--- .... ....|--- .... ....|R-- .... ....
....|..|D-2 .... ....|--- .... ....|A-3 416D ....
....|..|--- .... ....|--- .... ....|R-- .... ....
....|..|--- .... ....|F-4 .... ....|C-1 2..F ....
....|..|--- .... ....|--- .... ....|--- .... ....
....|..|--- .... ....|R-- .... ....|--- .... ....
....|..|--- .... ....|--- .... ....|--- .... ....
....|..|F-2 .... ....|A#4 .... ....|A-3 416D ....
....|..|--- .... ....|--- .... ....|R-- .... ....
....|..|E-2 .... ....|A-4 .... ....|A-3 416D ....
....|..|--- .... ....|--- .... ....|R-- .... ....
....|..|D-2 .... ....|G-4 .... ....|C-1 2..F ....
....|..|--- .... ....|--- .... ....|--- .... ....
....|..|G-2 .... ....|F-4 .... ....|--- .... ....
....|..|--- .... ....|--- .... ....|--- .... ....
....|..|C-2 .... ....|C-5 .... ....|G-3 413D ....
....|..|--- .... ....|--- .... ....|R-- .... ....
....|..|C-2 .... ....|--- .... ....|G-3 413D ....
....|..|--- .... ....|--- .... ....|R-- .... ....
....|..|--- .... ....|--- .... ....|C-1 2..F ....
....|..|--- .... ....|--- .... ....|--- .... ....
....|..|--- .... ....|--- .... ....|--- .... ....
....|..|--- .... ....|--- .... ....|--- .... ....
....|..|C-2 .... ....|--- .... ....|--- .... ....
....|..|--- .... ....|--- .... ....|--- .... ....
....|..|C-2 .... ....|--- .... ....|--- .... ....
....|..|--- .... ....|--- .... ....|--- .... ....
....|..|--- .... ....|R-- .... ....|C-1 2..F ....
....|..|--- .... ....|--- .... ....|--- .... ....
....|..|--- .... ....|--- .... ....|--- .... ....
....|..|--- .... ....|--- .... ....|--- .... ....
....|..|C-2 .... ....|C-4 .... ....|G-3 413D ....
....|..|--- .... ....|--- .... ....|R-- .... ....
....|..|C-2 .... ....|--- .... ....|G-3 413D ....
....|..|--- .... ....|--- .... ....|R-- .... ....
....|..|--- .... ....|--- .... ....|C-1 2..F ....
....|..|--- .... ....|--- .... ....|--- .... ....
....|..|--- .... ....|--- .... ....|--- .... ....
....|..|--- .... ....|--- .... ....|--- .... ....
....|..|C-2 .... ....|--- .... ....|--- .... ....
....|..|--- .... ....|--- .... ....|--- .... ....
....|..|C-2 .... ....|--- .... ....|--- .... ....
....|..|--- .... ....|--- .... ....|--- .... ....
....|..|--- .... ....|E-4 .... ....|C-1 2..F ....
....|..|--- .... ....|--- .... ....|--- .... ....
....|..|--- .... ....|--- .... ....|C-1 2..F ....
....|..|--- .... ....|--- .... ....|--- .... ....

[Pattern10]
....|..|--- .... ....|D-2 4F.F ....|--- .... ....
....|..|--- .... ....|--- .... ....|--- .... ....
....|..|A-3 51.C ....|--- .... ....|--- .... ....
....|..|--- .... ....|--- .... ....|--- .... ....
....|..|D-4 .... ....|--- .... ....|--- .... ....
....|..|--- .... ....|--- .... ....|--- .... ....
....|..|E-4 .... ....|--- .... ....|--- .... ....
....|..|--- .... ....|--- .... ....|--- .... ....
....|..|F-4 .... ....|--- .... ....|--- .... ....
....|..|--- .... ....|--- .... ....|--- .... ....
..1F|..|R-- .... ....|--- .... ....|A-3 5C.A ....
....|..|--- .... ....|--- .... ....|--- .... ....
....|..|G-4 .... ....|E-2 .... ....|E-4 .... ....
....|..|--- .... ....|--- .... ....|--- .... ....
....|..|A-4 .... ....|F-2 .... ....|F-4 .... ....
....|..|--- .... ....|--- .... ....|--- .... ....
....|..|A#4 .... B..7|G-2 .... ....|G-4 .... ....
....|..|--- .... ....|--- .... ....|--- .... ....
....|..|A-4 .... ....|F-2 .... ....|F-4 .... ....
....|..|--- .... ....|--- .... ....|--- .... ....
....|..|G-4 .... ....|E-2 .... ....|E-4 .... ....
....|..|--- .... ....|--- .... ....|--- .... ....
....|..|E-4 .... ....|C-2 .... ....|C-4 .... ....
....|..|--- .... ....|--- .... ....|--- .... ....
....|..|--- .... B..8|--- .... ....|--- .... ....
....|..|--- .... ....|--- .... ....|--- .... ....
....|..|--- .... ....|--- .... ....|--- .... ....
....|..|--- .... ....|--- .... ....|--- .... ....
....|..|F-4 .... ....|--- .... ....|D-4 .... ....
....|..|--- .... ....|--- .... ....|--- .... ....
....|..|G-4 .... ....|--- .... ....|E-4 .... ....
....|..|--- .... ....|--- .... ....|--- .... ....
....|..|F-4 .... B..9|D-2 .... ....|D-4 .... ....
....|..|--- .... ....|--- .... ....|--- .... ....
....|..|R-- .... ....|--- .... ....|R-- .... ....
....|..|--- .... ....|--- .... ....|--- .... ....
....|..|G-4 .... ....|--- .... ....|E-4 .... ....
....|..|--- .... ....|--- .... ....|--- .... ....
....|..|F-4 .... ....|--- .... ....|D-4 .... ....
....|..|--- .... ....|--- .... ....|--- .... ....
....|..|E-4 .... B..A|A-1 .... ....|C-4 .... ....
....|..|--- .... ....|--- .... ....|--- .... ....
....|..|D-4 .... ....|--- .... ....|A-3 .... ....
....|..|--- .... ....|--- .... ....|--- .... ....
....|..|C-4 .... ....|--- .... ....|F-3 .... ....
....|..|--- .... ....|--- .... ....|--- .... ....
....|..|--- .... ....|--- .... ....|--- .... ....
....|..|--- .... ....|--- .... ....|--- .... ....
....|..|D-4 .... B..B|D-2 .... ....|A-3 .... ....
....|..|--- .... ....|--- .... ....|--- .... ....
....|..|--- .... ....|--- .... ....|--- .... ....
....|..|--- .... ....|--- .... ....|--- .... ....
....|..|--- .... ....|--- .... ....|--- .... ....
....|..|--- .... ....|--- .... ....|--- .... ....
....|..|--- .... ....|--- .... ....|--- .... ....
....|..|--- .... ....|--- .... ....|--- .... ....
....|..|R-- .... B..E|R-- .... ....|R-- .... ....
....|..|--- .... ....|--- .... ....|--- .... ....
....|..|--- .... ....|--- .... ....|--- .... ....
....|..|--- .... ....|--- .... ....|--- .... ....
....|..|--- .... ....|--- .... ....|--- .... ....
....|..|--- .... ....|--- .... ....|--- .... ....
....|..|--- .... ....|--- .... ....|--- .... ....
....|..|--- .... ....|--- .... ....|--- .... ....

[Pattern11]
....|..|--- .... ....|--- .... ....|--- .... ....
....|..|--- .... ....|--- .... ....|--- .... ....
....|..|--- .... ....|--- .... ....|--- .... ....
....|..|--- .... ....|--- .... ....|--- .... ....
....|..|--- .... ....|--- .... ....|--- .... ....
....|..|--- .... ....|--- .... ....|--- .... ....
....|..|--- .... ....|--- .... ....|--- .... ....
....|..|--- .... ....|--- .... ....|--- .... ....
....|..|--- .... ....|--- .... ....|--- .... ....
....|..|--- .... ....|--- .... ....|--- .... ....
....|..|--- .... ....|--- .... ....|--- .... ....
....|..|--- .... ....|--- .... ....|--- .... ....
....|..|--- .... ....|--- .... ....|--- .... ....
....|..|--- .... ....|--- .... ....|--- .... ....
....|..|--- .... ....|--- .... ....|--- .... ....
....|..|--- .... ....|--- .... ....|--- .... ....
....|..|--- .... ....|--- .... ....|--- .... ....
....|..|--- .... ....|--- .... ....|--- .... ....
....|..|--- .... ....|--- .... ....|--- .... ....
....|..|--- .... ....|--- .... ....|--- .... ....
....|..|--- .... ....|--- .... ....|--- .... ....
....|..|--- .... ....|--- .... ....|--- .... ....
....|..|--- .... ....|--- .... ....|--- .... ....
....|..|--- .... ....|--- .... ....|--- .... ....
....|..|--- .... ....|--- .... ....|--- .... ....
....|..|--- .... ....|--- .... ....|--- .... ....
....|..|--- .... ....|--- .... ....|--- .... ....
....|..|--- .... ....|--- .... ....|--- .... ....
....|..|--- .... ....|--- .... ....|--- .... ....
....|..|--- .... ....|--- .... ....|--- .... ....
....|..|--- .... ....|--- .... ....|--- .... ....
....|..|--- .... ....|--- .... ....|--- .... ....
....|..|--- .... ....|--- .... ....|--- .... ....
....|..|--- .... ....|--- .... ....|--- .... ....
....|..|--- .... ....|--- .... ....|--- .... ....
....|..|--- .... ....|--- .... ....|--- .... ....
....|..|--- .... ....|--- .... ....|--- .... ....
....|..|--- .... ....|--- .... ....|--- .... ....
....|..|--- .... ....|--- .... ....|--- .... ....
....|..|--- .... ....|--- .... ....|--- .... ....
....|..|--- .... ....|--- .... ....|--- .... ....
....|..|--- .... ....|--- .... ....|--- .... ....
....|..|--- .... ....|--- .... ....|--- .... ....
....|..|--- .... ....|--- .... ....|--- .... ....
....|..|--- .... ....|--- .... ....|--- .... ....
....|..|--- .... ....|--- .... ....|--- .... ....
....|..|--- .... ....|--- .... ....|--- .... ....
....|..|--- .... ....|--- .... ....|--- .... ....
....|..|--- .... ....|--- .... ....|--- .... ....
....|..|--- .... ....|--- .... ....|--- .... ....
....|..|--- .... ....|--- .... ....|--- .... ....
....|..|--- .... ....|--- .... ....|--- .... ....
....|..|--- .... ....|--- .... ....|--- .... ....
....|..|--- .... ....|--- .... ....|--- .... ....
....|..|--- .... ....|--- .... ....|--- .... ....
....|..|--- .... ....|--- .... ....|--- .... ....
....|..|--- .... ....|--- .... ....|--- .... ....
....|..|--- .... ....|--- .... ....|--- .... ....
....|..|--- .... ....|--- .... ....|--- .... ....
....|..|--- .... ....|--- .... ....|--- .... ....
....|..|--- .... ....|--- .... ....|--- .... ....
....|..|--- .... ....|--- .... ....|--- .... ....
....|..|--- .... ....|--- .... ....|--- .... ....
....|..|--- .... ....|--- .... ....|--- .... ....

